<?xml version="1.0" encoding="UTF-8"?>
<svg version="1.1" viewBox="0 0 2048 137" width="1280" height="1280" xmlns="http://www.w3.org/2000/svg">
<path transform="translate(0)" d="m0 0h2048v137h-2048z" fill="#FFFEFE"/>
<path transform="translate(1112,17)" d="m0 0 2 1-5 6-1 5h1v5h2v2h2l2 4 5 1v3h5l1 10 3 3h-2l1 5-1 4 3 6 4 4 1 3h2l2-3 2 10 7 10 11 10-2 1-10-6-13-13-3-5-3-1-2 6 2 1 1 5h2l2 5h2l2 7 9 9 11 7-2 1-12-5-9-7-4-2-1-4-3-2-3-5-7-6 3-1-1-3-4-2 1-5-5-5-5-4-4-3 5 1 11 6 7 1-3-6-2-3-3-6-5-6 1-2 7 7v-5l-1-4-3 1-2-7-3-1-1 2-2-6-2 2-3-14 6-9z" fill="#FF0606"/>
<path transform="translate(1221,17)" d="m0 0 5 2 4 5 3 5-2 11-2 3-1-2-2 7-1-3-3 1-2 7-3-1-1 9 7-7v3l-6 8-2 6-3 3-1 3 9-2 11-6 3 1-8 5-4 5-2 1 1 6h-5l-1 5 4-1-9 9-1 3-4 3-1 4-5 3-11 7-10 3 3-3 9-6 3-3h2l2-4 2-3 1-5h2l2-4 2-1 1-5h1l-1-7-4 2-4 7-8 7-7 6-6 3-2-1 13-12 5-8 2-10 2 3 3-1 1-4 5-5 1-7-1-2 1-3-2-1 3-2 1-10 6 1-1-4 6-2 1-3h2l1-3 2-4-1-5z" fill="#FF0606"/>
<path transform="translate(382,17)" d="m0 0v3l-4 5-2 6h2l1-2 3 7 2 4 6 1-1 4h5l-1 5h2v5l5 2-3 1 1 4-3-1 4 10 5 5 1 3 2 1 1-4 1 1 2 9 6 9 12 12-6-2-6-4-13-12-3-6-3-1-3 7h3l1 5h2l1 6h3l3 7 5 6 12 8-3 1-14-7-5-4-3-3-2-4-3-3-6-7-3-3 4 1-2-4-4-2 1-4v-2l-4-2-4-5-4-3 5 1 9 5h6l-2-5-2-2-4-8-6-7 1-2 9 9v-5l-1-4-3 1-2-8h-3l-1 3-2-6h-3l-1-9-2-3 7-11z" fill="#FF0606"/>
<path transform="translate(492,18)" d="m0 0 5 2 6 9-3 14-2-2-2 6-1-2-4 2-1 6h-2l-4 9 6-5 6-7v3l-8 10-3 7-2 3h-2v4l9-2 8-5 3 1-6 4-3 5-3 3v3l2 1h-5l-1 4 4 1-7 5-5 7-3 3-1 3-10 7-13 6-2-1 12-8 7-7 3-8h2l1-4h3v-6h2l-1-7-4 2-3 6-16 14-8 3v-2l9-7 8-11 3-11 2 3h2l2-5 4-4 2-5-1-6 1-2-2-1 3-2 1-8-1-2h6v-3l6-2 2-5h3v-5l1-2-4-7z" fill="#FF0606"/>
<path transform="translate(1378,14)" d="m0 0 3 1-11 7-8 8-3 7-2 1-1 4h-3l-1 5h-2l2 7 4-1 4-7 8-7 7-6 6-3 2 1-12 11-6 10-2 9-1-4-3 1-2 5-4 4-2 5 1 7 2 1-4 3-1 9-5 1v3l-5 1-3 6h-3l-1 7 4 7 2 1-1 2-6-4-5-10 3-12 1 2h2l1-6 2-1v3l4-4v-4l3-1 3-8-8 7-2 1 2-4 8-12 2-4v-3l-6 1-11 6-3-1 6-4 3-5 3-1 1-4-1-2h4l1-4-4-1 9-8 6-8v-2l5-3 11-7z" fill="#FF0606"/>
<path transform="translate(1254,15)" d="m0 0 6 1 11 6 6 5 3 2 1 4 13 13-4 1 1 3h5l-1 6 3 2 3 5 7 4-3 1-13-7-6-1v4h2l2 2 3 8 8 10v3l-10-11-1 1 3 8 2-1 2 7 2 1 2-2 2 6 2-2 2 11v4l-5 8-4 3-2-1 5-6 1-5-3-4v-3h-2l-2-4-5-1v-3h-5l-1-10-4-3h3l-1-5 1-4-4-7-3-1-1-5h-2l-2 3-3-11-8-11-9-7 1-2 9 5 10 9 4 3 3 6 4 2 2-7h-2l-2-5-2-1-4-8-4-6-9-8-7-4z" fill="#FF0606"/>
<path transform="translate(648,14)" d="m0 0 3 1-11 7-7 6-3 5-1 4-6 6-1 5h-1v7l5-2 5-8 8-7 6-5 6-3 2 1-12 11-6 9-2 10-2-3-3 1v3l-5 4-2 5 1 8 2 1-5 2v11l-6-1 1 3-6 2-3 6-3 4 1 6 4 6-5-2-6-9 2-11 2-4 1 2 2-6 1 3 4-1 1-7 3 1 1-9-8 8v-3l7-9 2-6 3-3v-3l-6 1-11 6-3-1 6-4 3-5 3-1 1-5-2-1 4-1 2-3-4-1 9-8 1-3 4-3v-4l6-3 9-6z" fill="#FF0606"/>
<path transform="translate(524,15)" d="m0 0 5 1 12 6 6 5 2 2 2 4 3 3 6 7 4 3-4 1 1 2 5 1-2 5v2l4 1 3 5 7 4-3 1-13-7-6-1 2 7h2l3 7 7 9-1 2-9-9v5l3 4 2 1 1 6 3-1 1-2 2 6v2h2l1-3 1 9 2 5-6 9-4 3-2-1 5-6 1-6-2 1 1-5-3 1-3-7-5-1v-3h-6l1-6-1-5-4-2h3l-1-4 1-4-3-6v-2l-4-1-2-5-3 3-3-11-7-9-1-3-4-2-5-5 5 1 11 8 8 8 3 6 4 1 2-7h-3v-6l-3 1-2-5-2-3-4-7-8-7-8-5z" fill="#FF0606"/>
<path transform="translate(84,28)" d="m0 0 2 1-4 5-1 6 3 4 3 6 6 2-1 3 6-1v11l3 1v6h-1l1 7 2 5 4 2v4l3-1 2-2 2 9 6 9 12 12-6-2-6-4-10-9-5-8-8-3-11-3-1-2 11 1-1-4-3-5-5-8-5-6 1-2 9 9v-5l-1-4h-2l-1 2-2-7-3-2-1 3-2-6-2 1-2-10-2-3 7-10z" fill="#FF0606"/>
<path transform="translate(342,28)" d="m0 0 5 2 7 10-2 4-1 8h-3l-2 6-1-3-4 3-1 5-3-1v4h-2l1 3-1 3 5-5 7-6-2 4-8 11-2 5-3 4v2l11-1-3 3-17 4-2 6-12 12-8 5-5 1 5-5 6-5 7-11 2-9 2-1v4l3-1v-4l4-2 3-6v-5l-1-2v-3l2-2 1-9 1-2 4 1v-3l6-2 3-6 3-4 2 1-5-10z" fill="#FF0606"/>
<path transform="translate(1410,28)" d="m0 0 2 1-4 5-3 7 3-1 5 10 6 2v3l5-1-1 6 2 5 2 2-1 4 1 9 6 6v3l3 1 1-4 1 1 2 9 7 11 11 9-2 1-8-4-12-11-3-3-2-6-17-4-3-3 11 1-2-6-2-2-4-8-7-8 1-2 9 10 2 1-1-4 1-2h-2v-4h-2l-1 2-2-7-3-2-1 3-2-6h-3l-2-10v-3l6-9z" fill="#FF0606"/>
<path transform="translate(739,28)" d="m0 0 3 1-5 6-1 5h2l-1 4h3l3 6 5 2 1 3h4l1 9 4 4-2 1-1 6 4 8 4 3v3l3 1 1-4 3 11 8 11 8 7 2 2-5-1-9-6-8-8-3-2-3-6-3-2-13-3-3-3 11 2-2-7h-2l-3-8-9-11h3l8 9 2 1-2-6v-4l-3 1-3-7-2-1-1 3-2-7h-2l-1 2-2-11v-3l5-8z" fill="#FF0606"/>
<path transform="translate(1594,27)" d="m0 0 6 3 6 11-2 4-1 8-1-2h-2l-2 7-1-3-4 4v4l-4-1-1 8-1 2 8-7 3-4 2 1-10 13-2 6-2 1-2 6 12-2-4 3-15 4-3 4-2 4-8 7-7 6-6 3-2-1 12-11 6-10 2-9 1 4 3-1 1-4 5-5 2-5-1-7-2-1 4-3 1-9 5-1v-2l5-2 3-6h3l-1-4h2l-1-5-5-6z" fill="#FF0606"/>
<path transform="translate(1072,28)" d="m0 0 4 1 5 6 3 6-2 3-1 9-1-2h-2l-2 7-1-3-4 4-2 4-2-1-1 8-1 2 7-6 4-5 2 1-10 12-2 6h-3l1 3h-2v5l11-2-3 3-15 4-5 8-8 7-7 6-6 3-3-1 9-7 8-10 2-4 2-9 1 4 3-1v-4l5-3 3-7-1-7-2-1 4-3 1-7v-3l4 1 1-3 6-3 2-5h3l-1-4h2l-2-7z" fill="#FF0606"/>
<path transform="translate(997,27)" d="m0 0 6 3 6 11-3 12-1-2h-2l-1 6-1-2-4 2-1 6-3 1-3 8 8-7 3-2-2 4-6 8-2 6-3 3-1 4 12-2-4 3-15 4-3 4-2 4-8 7-7 6-6 3-2-1 12-11 6-10 2-9 1 4 4-2v-3l5-5 2-4-1-8-2-1 4-3 1-9 5-1v-2l6-1 2-7h3l1-7-4-7-2-1z" fill="#FF0606"/>
<path transform="translate(36,17)" d="m0 0 1 2 1 8 3 11 2 1-2 5v12h-2l2 18h-2v4h5l2 2 10 1 1 2-9 2-1 2h-2v-2h-5l-1 8 2 2-3 4-1 9v5l-3-4-2-15-1-2 2-7-4 1h-2-3-6l-4 2 6-7 7-1 1-2 3 1 2-4-3 1 2-6 1-2v-8-3l1-9v-7l-1-7v-7l2-9z" fill="#FF0606"/>
<path transform="translate(691,17)" d="m0 0h1l3 16 1 6h2l-2 11 1 6h-2l1 17-2 1v5l6-1 1 2 10 1 2 2-8 1-4 3v-2l-6-1 1 3-2 2 1 4v4l-2 3v13l-3-3-1-3-1-13-1-4 1-5-4 1-1-1-3 3-1-2h-7l2-4 10-4 3 1-1-6 3-6v-6l-2-3h2l1-15-2-4 2-19z" fill="#FF0606"/>
<path transform="translate(151,44)" d="m0 0 5 1 15 9v2l6-2-2 5v4h2v6h3l1 4 2 1 3 7 9 9 10 6-3 1-14-7-6-5-3-1-1-4-11-12-3-3h4l-1-4h-5l2-1-1-5-3-1-3-5-6-4z" fill="#FF0606"/>
<path transform="translate(805,43)" d="m0 0 9 3 12 8 3 1 4-1-3 6 1 3h1l2 6 2 2v3h3l2 6 7 8 11 7 2 2-6-1-13-7-5-4-3-1-1-5-5-5-4-5-3-3h3l-2-4-4-2 1-4-4-4-4-5-6-3z" fill="#FF0606"/>
<path transform="translate(930,44)" d="m0 0 3 1-6 4-3 5-3 1-1 5 2 1-5 2-1 2 3 2-8 7-6 8v2l-5 3-9 6-9 4-3-1 11-7 5-4 5-7 1-4 2-1 2-4h2v-6h2l-1-7-1-2 6 1 1-2 7-4z" fill="#FF0606"/>
<path transform="translate(1477,44)" d="m0 0 5 1 11 7 3 1 1 2 6-1-2 4v5h1l2 6 2 1 1 3 2 1 3 7 5 5 7 6 7 4-3 1-16-8-4-4-3-1-2-5-3-2-3-5-6-5 3-2-2-3-4-2h2l-1-5-3-1-3-5-6-4z" fill="#FF0606"/>
<path transform="translate(272,45)" d="m0 0 3 1-5 4-2 4-3 2 1 5-4 1-2 4 5-1-8 8-4 5-3 2v4l-7 4-8 5-9 4-2-1 13-9 7-8 2-5h2l1-5h2l1-6h2l-1-6-2-3 7 2 1-3z" fill="#FF0606"/>
<path transform="translate(1624,70)" d="m0 0 2 1v12l-1 9h-1l-1-10v-11z" fill="#FF0606"/>
</svg>
